<svg id="Layer_1" data-name="Layer 1" xmlns="http://www.w3.org/2000/svg" viewBox="0 0 500 500"><defs><style>.cls-1{fill:#e5ca20;}.cls-2{fill:#173507;}</style></defs><title>Artboard 1</title><path class="cls-1" d="M130.63,485.84c-1.73-.79-4.11-1.85-6.48-3-2.53-1.18-5.08-2.31-7.54-3.63-3.21-1.73-6.36-3.57-9.47-5.47-2.06-1.26-3.93-2.83-6-4s-4.47-1.94-4.47-5.31c0-1.83-1.69-3-3.39-1.1-2.66-1.73-5.5-3.1-7.76-5.12-6-5.35-11.74-11-17.6-16.48a16.6,16.6,0,0,0-1.57-1.19c-1.29-.95-3-1.62-3.82-2.87-4.68-6.95-12.3-11.36-16.17-19.05-1.1-2.17-3.85-3.5-5-5.66-3.84-7.3-10.31-12.84-13.27-20.78-1.34-3.6-4.44-6.51-6.17-10-2.56-5.17-4.65-10.58-6.84-15.93-1.24-3-2.3-6.11-3.42-9.17a12.85,12.85,0,0,1-1-3.22c-.59-8-4.34-15.31-4.14-23.48.1-4.14-1.29-8.3-1.75-12.47Q3.54,306.5,2.59,295.05c-.54-6.44-.91-12.9-1.35-19.35-.2-3-.45-5.94-.57-8.92C.43,260.88.1,255,.11,249.09c0-6.74.44-13.48.51-20.22,0-2.62-.68-5.26-.62-7.87.16-5.9.59-11.79.91-17.82l1.81.14a29.17,29.17,0,0,0-.32-3.64,29.66,29.66,0,0,1,1.46-17.15,15.22,15.22,0,0,0,.53-2.72c.53-3.24,1-6.49,1.62-9.7.71-3.47,1.59-6.9,2.46-10.33.39-1.54.91-3,1.4-4.55,1-2.93,2-5.84,2.9-8.77a10.55,10.55,0,0,1,.45-1.92c4-6.84,4.18-15.17,8.84-21.8,1.55-2.22,2-5.25,2.9-7.9,1.57-4.38,3-8.83,4.8-13.09,1.07-2.46,2.88-4.59,4.31-6.9,1-1.64,1.91-3.36,3-5,1.95-3.08,3.82-6.23,6-9.14,2.53-3.36,5.59-6.33,8-9.76,2-2.82,3-6.28,5-9.09C59.8,56.46,64,51.32,68,46a16.23,16.23,0,0,0,1.66-3.24c3.56-8.1,9.67-13.28,18-16A11.07,11.07,0,0,0,91.07,25a28.2,28.2,0,0,1,13.7-6.25,18.58,18.58,0,0,0,3.94-1.36c2.37-.92,4.68-2,7.08-2.79,3.36-1.11,6.76-2.14,10.2-3,3.17-.79,6.51-1,9.6-2a76.45,76.45,0,0,1,19-3.28c3.08-.21,6.1-1.05,9.17-1.36,3.43-.35,6.89-.47,10.34-.61,6.37-.26,12.74-.46,19.11-.68,4-.15,8-.43,12-.4,6.92,0,13.84.37,20.76.39,2.32,0,4.68-.93,7-.8,7.39.39,14.76,1.09,22.13,1.65a9.32,9.32,0,0,0,1.67,0c3-.24,5.91-.76,8.83.78,1,.52,2.61-.29,3.94-.25,4.59.16,9.16.45,13.75.62,1.49.06,3-.37,4.47-.13,8.49,1.39,17.21-.66,25.67,2.15,3.83,1.27,8.13,1.12,12.2,1.69a65.93,65.93,0,0,1,7.41,1.28c3.45.89,6.83,2,10.24,3.07A32,32,0,0,0,347.6,15a30.11,30.11,0,0,1,13,5.07,13.28,13.28,0,0,0,3,1.28c2.45,1,5.1,1.57,7.32,2.91,6,3.6,11.71,7.73,17.77,11.23,4.77,2.75,9.9,4.87,14.87,7.26.08,0,.2,0,.27.06,8.29,4.93,18.77,5.69,25.45,13.85,1.78,2.19,5.15,3,7.56,4.78a45.37,45.37,0,0,1,4.79,4.72c2.18,2.17,4.45,4.26,6.53,6.51,4.13,4.48,8.24,9,12.19,13.6,2.79,3.27,5.41,6.7,7.91,10.19a58.12,58.12,0,0,1,4.16,7,96.5,96.5,0,0,1,4.22,8.83c1.19,2.94,2,6,3,9,.76,2.2,1.58,4.38,2.39,6.58-2.15,1-3.69,3.85-2.69,5.38,1.21,1.87,2.8,1.93,4.23.53,1.22,3.18,2.51,6.24,3.57,9.38a62.43,62.43,0,0,1,1.51,6.28c.62,2.72,1.19,5.45,1.79,8.18.18.82.43,1.63.53,2.46.91,7.53,1.74,15.07,2.73,22.59.4,3,1.41,5.86,1.73,8.83.91,8.46,1.75,16.94,2.34,25.43.55,7.93.73,15.89,1.09,23.83,0,.75.18,1.49.29,2.23a26.39,26.39,0,0,1,.71,5c-.33,7.76-.88,15.51-1.25,23.27-.08,1.75.6,3.59.33,5.29-1.27,8.16-.29,16.56-2.82,24.56a6.67,6.67,0,0,0-.19,1.95c0,1.42.31,2.93-.06,4.24-2.48,8.68-1.79,18.19-6.84,26.2a3.51,3.51,0,0,0-.44,1.6,27.45,27.45,0,0,1-6.06,15,1.18,1.18,0,0,0-.17.22c-2.12,6.4-5.74,11.95-9.71,17.32-1.33,1.8-2,4-3.35,5.87-3.69,5.17-7.6,10.19-11.27,15.38-1.23,1.75-1.76,4-3,5.73-4,5.63-8.19,11.14-12.34,16.68-1.66,2.22-3.4,4.39-5.09,6.6-1.09,1.42-2.07,2.92-3.22,4.28-3.86,4.57-7.15,9.91-11.82,13.41-6.59,4.95-12.78,10.9-21.22,13-1.3.32-2.36,1.54-3.61,2.17-2.51,1.28-5,2.54-7.63,3.61s-5.41,1.94-8.11,2.92c-7.47,2.71-15,5.33-22.37,8.19-5.5,2.11-10.87,4.53-16.3,6.82-.09,0-.17.09-.26.12q-10.65,3.6-21.3,7.18c-1.59.53-3.19,1-4.8,1.48-3.69,1.05-7.41,2-11.08,3.1-2.78.84-5.45,2-8.24,2.78-4.61,1.24-9.24,2.42-13.93,3.31-5.78,1.11-11.6,2.06-17.45,2.79-8.72,1.1-17.45,2.26-26.21,2.82-8,.51-16.1.24-24.15.33-.74,0-1.49.07-2.23.13-2.24.2-4.55.84-6.71.53-4.25-.62-8.5.58-12.56.06-8.27-1.06-16.71.09-24.89-2.42-3.61-1.1-7.69-.55-11.42-1.36-6.18-1.36-12.28-3.1-18.34-4.91-1.7-.51-3.82-1.06-4-3.66,0-.41-1.46-1.17-2-1C132.9,483.93,132.1,484.81,130.63,485.84Z"/><path class="cls-2" d="M197.82,236.16c7.24-.17,14.19-3.83,21.64-1.45a19.81,19.81,0,0,1,7.26,4c3.46,3,8,4.77,12.09,7,1.13.61,2.53.74,3.64,1.39,6.69,3.88,11.65.05,16.84-3.48s9.44-8.1,15.42-10.19c1.43-.51,3.27-1,4.55-.57,2,.74,3.18-.27,4.81-.66a37.42,37.42,0,0,1,10-1.07c4,.15,7.57,0,10.69-3,2.53-2.38,3.36-4.13,2.25-7.4-.63-1.84-.23-2.58,1.69-2.78.63-.07,1.18-.77,1.77-1.19a7.32,7.32,0,0,0-1.45-1.7,20.59,20.59,0,0,1-8.32-9.24c-1.13-2.54-2.6-4.94-3.62-7.52-3.69-9.36-7.26-18.78-10.87-28.18-1.16-3-2.35-6-3.41-9-.89-2.52-1.44-5.16-2.45-7.62a18.58,18.58,0,0,0-13.44-11.6c-3.61-.89-7.16-2.13-10.82-2.77-2-.36-4.25.21-6.39.33-1.46.08-3.05.5-4.37.09-3.88-1.19-6.47.92-9.1,3.09-1.67,1.38-3.37,2.57-6.33,2,5.69-4.65,10.78-9.42,17.49-11.14,3.07-.78,6.66.19,9.95.71,2.88.45,5.65,1.91,8.51,2,6.66.26,11.17,4.1,15.57,8.33.69.66,1.17,1.55,1.91,2.15,2.35,1.91,2.84,4.39,3.24,7.31,1,7.67,2.46,15.23,6.89,22a23.57,23.57,0,0,1,3.37,9.53c.56,4.12,2.34,7.58,4.06,11.18,1.31,2.73,2,6,4.87,7.43,3.77,1.86,7.7,3.89,11.77,4.54,6,.95,12.14.77,18.22,1,9.05.36,18.09.91,27.14.93,8.07,0,16.17-.32,24.22-1,7.43-.64,14.83-1.84,22.2-3a19.35,19.35,0,0,0,6-2.29c3.3-1.84,4.14-5.48,5.26-8.65,1.92-5.46,3.22-11.14,5-16.68.77-2.44,2.06-4.72,3-7.13,3.42-9.17,6.83-18.34,10.12-27.56a38.36,38.36,0,0,0,1.57-6.82c.95-5.75,4-10.23,8.29-13.94,2.81-2.44,6-4.49,8.53-7.19a9.16,9.16,0,0,0,2.27-6,44,44,0,0,0-2.19-10.91c-.31-1-2.4-1.75-3.77-2a89.1,89.1,0,0,0-10.81-1c-2.2-.06-4.41.6-6.62.67a9.44,9.44,0,0,1-4.23-.69c-3.73-1.74-7.35-.09-11,.06a36.18,36.18,0,0,0-5,1.06c-5.53,1-11.07,2-16.61,3a4.58,4.58,0,0,1-1.28.24c-5.23-.74-10.08,1.35-15.11,2-2.38.31-4.86-.24-7.28-.1A103.55,103.55,0,0,0,363,104a17.29,17.29,0,0,1-5,0,62.76,62.76,0,0,0-13.56-.13c-4.31.54-8.45,2.29-12.7,3.35-5.53,1.38-11.06,2.8-16.66,3.84a60.27,60.27,0,0,0-16.59,5.7,4.75,4.75,0,0,1-2.45.69c-2.38-.25-4.09.93-6,2.09a24,24,0,0,1-5.27,2c-1.39.46-2.9.61-4.23,1.18A33.61,33.61,0,0,1,270,124.89a81,81,0,0,0-11.44,2.38,24.74,24.74,0,0,1-15.76-1.5c-.56-.23-1.18-.76-1.66-.65-4.13.93-7.25-1.69-10.8-2.87-3-1-6.13-1.56-9.18-2.39a8.69,8.69,0,0,1-2.28-1.09,31,31,0,0,0-10.55-4.34,46.25,46.25,0,0,1-10.57-4.15c-3.88-1.92-7.82-1-11.77-.9-3.12.05-6.27,1.37-9.31-.88-.78-.57-2.58.1-3.87.39-1,.23-1.88,1-2.87,1.12-5.95.73-11.91,1.33-17.87,2-4.56.5-9.1,1.15-13.67,1.48-5.18.37-10.39.28-15.56.68-8,.63-16.08,1.56-24.12,2.22-3.28.26-6.64-.2-9.88.26-6.16.88-12.25,2.25-18.4,3.28a39.15,39.15,0,0,1-6.5.42,30.47,30.47,0,0,0-15.85,4.88c1,3,2,5.89,3,8.69a2.12,2.12,0,0,0,1.4,1c3.39.72,4.65,3.34,5.8,6.16,1.64,4,3.43,8,5.07,12,.82,2,1.44,4.1,2.17,6.15,1,2.93,2,5.91,3.2,8.75.21.48,1.85.8,2.57.53,2.81-1.07,5.46-2.56,8.29-3.56,1-.35,2.91-.16,3.38.5.91,1.28,1.75,3.26,1.39,4.62a5.53,5.53,0,0,0,.55,4.65c1.36,2.37,2.59,4.81,4.14,7.72a15.75,15.75,0,0,0-2.67-.26,6.53,6.53,0,0,0-3.21.63,75.65,75.65,0,0,0-7.24,5.89,3,3,0,0,0-.56,2.56c1.1,3.75,1.9,7.71,3.78,11s5.57,5.38,9.43,6.48c5.89,1.68,11.75,3.55,17.73,4.8,5.83,1.23,11.81,1.79,17.72,2.63a67.74,67.74,0,0,1,7.14,1c8.31,2.07,16.35-.05,24.5-1.16,4.61-.64,9.37-.2,14-.75,5.22-.63,10.7-1.05,15.43-3,3.23-1.35,5.74-5,7.91-8.1,2.53-3.6,4.23-7.77,6.52-11.56a56.31,56.31,0,0,1,5.48-7.55,34.46,34.46,0,0,0,5.72-9.19c1.56-3.68,3.67-7.11,5.25-10.78a81.19,81.19,0,0,0,2.59-8.19,10.35,10.35,0,0,1,.25-1.28c2.05-4.52,6.25-6.88,10-10.7.11,2.58.09,4.06-1.82,5-.52.25-.59,1.51-.78,2.33s0,2.18-.48,2.64c-1.63,1.41-1.57,3-1.58,5a14.73,14.73,0,0,1-1.34,4.86q-2.19,5.75-4.6,11.43c-.34.79-1,2-1.61,2-2.7.37-3.59,2.68-3.88,4.44-.89,5.36-3.78,9.76-6,14.51a18.47,18.47,0,0,0-.78,3.53c-.83,3.55-1.86,7.07-2.43,10.66a11.08,11.08,0,0,0,.75,5c.59,1.78-.14,3.65-2.05,3.9-2.38.31-4.78.41-7.16.66-.85.09-2,.07-2.46.58-2.68,2.72-6.15,2.34-9.35,2.26a43.83,43.83,0,0,0-15.94,2.22c-1,.35-1.68,1.61-2.61,2.3-1.23.92-2.49,2.23-3.87,2.41-2.69.34-5.59.74-7.94-1.41a2.19,2.19,0,0,0-1.23-.38c-5.7-.49-11.41-.9-17.11-1.45-4.56-.44-9.11-1.08-13.66-1.6s-9-1-13.51-1.47c-1.38-.15-2.75-.37-4.14-.48-2.1-.17-4.08-.77-6.34.24-1.2.53-3.27-.59-4.84-1.22a25.86,25.86,0,0,1-5.58-2.75c-2.5-1.79-4.63-4.1-7.12-5.91-6.5-4.71-8.23-12-10.48-19-2-6.36-3.63-12.87-5.54-19.28-2.59-8.7-5.44-17.31-7.87-26-1.06-3.81-2.72-6.56-6.72-7.75A4.94,4.94,0,0,1,46,139.38a112.15,112.15,0,0,1-3.62-11.88,13.6,13.6,0,0,1,0-5.82A3.86,3.86,0,0,1,45,119.4c4.09-.82,8.27-1.22,12.38-2,3.56-.64,7-1.67,10.62-2.25,4.36-.72,8.78-1,13.13-1.72s8.64-1.73,13-2.54c5.37-1,10.71-2.22,16.13-2.81,8.21-.89,16.46-1.39,24.7-1.9,5-.31,9.94-.23,14.89-.51,8.75-.5,17.49-1.15,26.23-1.71.69-.05,1.59-.16,2,.2,2.48,2,5.39,1.63,8.22,1.9a45.6,45.6,0,0,1,5.07,1.13c3.36.7,6.79,1.16,10.08,2.11,4.2,1.22,8.28,2.83,12.41,4.28a66.67,66.67,0,0,0,7.88,2.71q10.77,2.34,21.65,4.19a33.92,33.92,0,0,0,7.27.15c10.1-.47,19.64-3.28,29.09-6.7,6.27-2.27,12.8-3.85,19.22-5.71a112.14,112.14,0,0,1,11.51-3.15c7.71-1.36,15.49-2.37,23.24-3.43,6.88-.94,13.79-1.62,20.65-2.67,7.1-1.08,14.15-2.58,21.25-3.68,4.57-.72,9.18-1.17,13.8-1.52,7.69-.58,15.39-1,23.08-1.45,5.38-.33,10.76-.68,16.14-1,1.65-.1,3.32-.18,5-.12,4.42.14,7.88-1.86,11.07-4.67a3.57,3.57,0,0,1,2.3-.83c3.38.14,6.75.61,10.13.64,3.08,0,4.5,1.72,5.4,4.3,1.06,3,2.18,6.07,5.11,7.94a1,1,0,0,1,.43.64c.43,3.92,1,7.85,1.14,11.78,0,1.56-1.36,2.6-3,3.51a50.73,50.73,0,0,0-7.91,5.91,48.07,48.07,0,0,0-6.7,6.44c-1.2,1.51-2.3,3.8-2.09,5.57.35,3-.65,5.44-1.68,8a31.52,31.52,0,0,0-1,3.47q-2.19,8.42-4.37,16.83a1.19,1.19,0,0,1-.22.47c-5.17,6.14-4.14,13.4-3.81,20.57.11,2.23-.27,4.48-.27,6.71,0,1.53.38,2.91,2.18,3.48a2.09,2.09,0,0,1,1.14,1.56,54.74,54.74,0,0,1,.18,8,3.46,3.46,0,0,1-2,2.57c-2.59.44-3.54,2.1-4.34,4.25-1.41,3.77-4.93,2.48-7.48,2.51a50.74,50.74,0,0,0-18.36,3.82,5,5,0,0,1-1,.21,20.38,20.38,0,0,0-8.4,3c-4.39,3-9.67,2.36-14.7,2.06-3.59-.21-7.16-.71-10.75-1-6.93-.61-13.85-1.34-20.79-1.69-6.08-.31-12.19-.22-18.29-.17a6.43,6.43,0,0,0-3.4,1c-3,2-6.17,3.61-9.9,3.61-2.95,0-4.51,1.5-5.37,4.27a29,29,0,0,1-2.79,6.14c-.68,1.15-1.82,2.69-2.91,2.83-5.83.73-11.23,4.32-17.51,2.29-3.47-1.12-7.23-1.33-10.82-2.13-5.57-1.23-10.41.61-15.09,3.27a1.69,1.69,0,0,0-.69.78c-2,4.64-6.27,6.83-10.11,9.54a20.91,20.91,0,0,0-4,4.13c-1.68,2.1-3.86,1.24-5.51.64A151.89,151.89,0,0,1,231,246.75c-3.14-1.55-5.77-4.12-8.65-6.19a48.67,48.67,0,0,0-5.38-3.62,8.53,8.53,0,0,0-3.76-.8,51.18,51.18,0,0,0-5.66.35c-1,.08-1.88.34-2.83.45-2.29.25-4.59.47-6.88.7ZM74.14,187.93l.78.15a8.84,8.84,0,0,0,1-2.39c.42-3.7.72-7.4,3.46-10.34,1-1.07.58-2.27-.74-2.19a32.92,32.92,0,0,0-7,1.33c-.44.13-.91,1.58-.74,2.25C71.89,180.5,73.05,184.21,74.14,187.93Z"/><path class="cls-2" d="M368.64,120.42c-2.56.18-5.15.21-7.68.58-4.34.62-8.67,1.31-12.95,2.25a48.38,48.38,0,0,0-6.28,2.38c-4.18,1.59-8.39,3.13-12.56,4.77a9.26,9.26,0,0,0-2.34,1.64c-4.47,3.69-10.87,6.67-14.3,6.83,1.53-2.09,3.16-4.35,4.83-6.58a3,3,0,0,1,1-.78q10-5.28,20-10.53a7.54,7.54,0,0,1,2.14-1c11.28-1.81,22.47-4.33,34-4.41a4.67,4.67,0,0,1,1.52.3c4.07,1.51,8.23,2.83,12.16,4.66,2.07,1,3.6,3,5.6,4.22,6.2,3.75,10.32,9.42,14.53,15.07,2.69,3.61,2.63,10.32-.8,14-.82.87-2.36,1-3.51,1.63-5.39,2.8-10.63,6-16.19,8.37-4.73,2.05-9.84,3.2-14.75,4.82-2.65.88-5.55.69-8,2.54-2.19,1.65-5.92.6-8-1.37a7.61,7.61,0,0,0-3-1.3c-4-1.21-8.13-2-11.89-3.64-3.46-1.55-6.77-.68-10.16-.8a58.1,58.1,0,0,1-7.64-1c-3.05-.54-6.07-1.29-9.12-1.81-2.29-.39-3.51-1.78-3.09-4.08a18,18,0,0,1,6-11c3.93-3.29,7.92-6.51,12.11-9.45a104,104,0,0,1,22.82-11.71,41.9,41.9,0,0,1,14.09-3.18,5.42,5.42,0,0,0,1.57-.57Zm15.58,19.64c-1.46-3.53-2.62-6.59-4-9.54a3.63,3.63,0,0,0-2.19-1.87,30.48,30.48,0,0,0-6.74-.48c-.59,0-1.74,1.54-1.58,2.05.73,2.38,1.38,5,2.88,6.88a114.44,114.44,0,0,0,8.94,9.37c1.4,1.39,2.48,2.64,2.12,5-.46,3,1.37,4.28,4.29,3.22,5.85-2.12,11.69-4.25,17.51-6.45.62-.24,1.43-1,1.44-1.54s-.83-1.14-1.38-1.62c-1.88-1.62-3.82-3.18-5.7-4.81-.94-.81-1.81-1.72-3.31-3.15-.2,1.71-.23,2.59-.42,3.45a6.56,6.56,0,0,1-.69,1.41c-.5-.38-1.32-.67-1.44-1.15a8.31,8.31,0,0,1,0-2.86c.24-2.4-.56-4.47-2.67-5.49s-4.47-3.3-7.31-1.43C384,133.9,388,136.23,384.22,140.06Zm-61.58,13.26c1.8.65,2.79,1.29,3.81,1.33,4.15.17,8.31.07,12.46.26,2.53.12,3.87-1.11,5.24-3.07,3-4.28,5.19-9.23,9.76-12.32.8-.54,1.79-2.25,1.55-2.58a8.82,8.82,0,0,0-3.31-2.67,4.33,4.33,0,0,0-2.79.21,51.36,51.36,0,0,0-17.89,10.31C328.57,147.31,325.92,150.13,322.64,153.32Zm42-9.55-.23-.79c-3.07,1.07-6.45,1.64-9.1,3.36-2.07,1.34-3.43,4-4.66,6.3-.38.73.7,2.23,1.11,3.37a18.23,18.23,0,0,0,2.92-1.19c.64-.39.95-1.35,1.6-1.69,2.7-1.4,5.47-2.69,8.25-3.92.3-.13,1.07.28,1.3.64,1,1.66,2.58,3.32,2.8,5.12.26,2.17,1.05,4.12,2.87,3.94,2.7-.26,5.3-1.65,7.9-2.66.14-.06-.05-1.07-.14-1.63-.6-3.58-3.12-5.54-5.87-7.56S368.16,143.37,364.66,143.77Zm5.23-8.63c-.08-2-4.21-6.41-5.62-6.14a49.06,49.06,0,0,0-7.25,2c-1.42.52-1.61,1.41-.37,2.76a7,7,0,0,0,6.64,2.51c1.65-.22,3.38.13,5,0C369,136.21,369.54,135.42,369.89,135.14Zm-4.18,24.34c.71-.85,1.55-1.45,1.77-2.23.42-1.45-2-4.82-3.11-4.35-1.43.61-3.4,1.95-3.56,3.18C360.37,159.49,364,157.61,365.71,159.48Z"/><path class="cls-2" d="M391.44,63.48a81.8,81.8,0,0,1-5.75,6.68,29.06,29.06,0,0,1-6.41,4.61c-1.56.82-3.25.11-4.09-1.73s-2-2.13-3.81-1.35a10.27,10.27,0,0,1-3.3.51,2.45,2.45,0,0,1-2.83-2.68,21.76,21.76,0,0,1,2.47-10.81,26.27,26.27,0,0,0,2.48-6,3.38,3.38,0,0,0-1-2.83,3.36,3.36,0,0,0-2.77-.2c-6.08,2-9.33,7.05-12.73,12a19.38,19.38,0,0,0-3,7.89c-.89,4.95-4,7.79-8.26,8-2.18.1-3.57-1-3.51-2.94A32.73,32.73,0,0,1,340.2,66c.54-1.74.48-2.73-.91-3.78-1.62-1.21-2.31.05-3.14,1-1.61,1.93-3.34,3.77-4.78,5.81a15.71,15.71,0,0,0-1.85,4.23c-.77,2.39-2.44,3.9-4.46,3.49-2.21-.46-3.9-1.56-3.64-4.25.32-3.29.61-6.58.91-9.87a4.63,4.63,0,0,0,.12-1.79A14.35,14.35,0,0,0,321,58.53,7.77,7.77,0,0,0,319,60c-3.43,4.82-6.78,9.7-10.13,14.57a6.25,6.25,0,0,0-.93,5.67c1.05,3.61-.41,5.44-4.18,5.76-4.72.4-6.84-1.27-7.64-6a2.4,2.4,0,0,0-.15-.77c-2.5-4.27-.15-6.88,2.91-9.64,3.67-3.31,6.82-7.18,10.43-10.56a66.16,66.16,0,0,1,7.82-6c3.2-2.2,5.94-1.73,8,1.38,1.15,1.72,2,2,3.94.92,5.19-2.87,10.67-2.7,15.92-.07a4.25,4.25,0,0,0,5-.29c5.09-3.41,10.25-6.76,15.55-9.82,2.94-1.7,5.45-.74,7.46,2.17.45.64.78,1.36,1.19,2,2.23,3.54,3.09,3.7,6.73,1.28a31.94,31.94,0,0,1,3.1-1.92,4.7,4.7,0,0,1,7,2.94c.65,2.18,1.55,3.4,4.09,2.25,2.14-1,4.19-.42,6.17.85,4.5,2.88,8.91,6,13.7,8.31a17.21,17.21,0,0,1,6.38,5.34,9.53,9.53,0,0,1,1.34,5.35,20,20,0,0,1-1.08,5.89c-1.06,3.42-1.62,3.68-5.11,3.18a6.44,6.44,0,0,1-5.95-6.89c0-1.65,0-3.31-.07-5-.18-2.66-1.05-3.28-3.28-1.78a25.76,25.76,0,0,0-6.06,5.53c-2.44,3.14-6.91,3.6-9.27.36-.52-.71-.21-2.1-.08-3.15.3-2.51.72-5,1.1-7.5Zm-13.9-1c4.49-4,7-8.52,5.78-10.16C380.78,55.11,377.7,57.52,377.54,62.43Z"/><path class="cls-2" d="M182.11,162.16c-1.14.49-2.24,1.07-3.41,1.47-5.72,2-11.34,4.53-17.23,5.63a57.06,57.06,0,0,0-13.55,4.49c-4.25,2-8,5-12.18,7.15-1.54.78-3.73.54-5.59.36-4.54-.42-9.09-.89-13.58-1.69a55.45,55.45,0,0,1-9.17-2.63,3.06,3.06,0,0,1-1.44-2.5c.37-3.63-2.22-6.09-4.35-7.54-1.93-1.31-5.4-.55-8.16-.36-1.76.13-3.45,1.07-5.22,1.29-2,.24-3.36-1.68-2.19-3.16a40.08,40.08,0,0,1,5.79-5.38c1.12-.95,3-1.43,3.53-2.57,2.1-5,6.9-6.69,10.79-9.51,1.34-1,2.65-2,4-2.89.55-.37,1.22-.89,1.78-.83,4.58.46,8.33-1.89,12.3-3.48a14.53,14.53,0,0,1,2.56-1.22c8.7-1.4,17.36-3.55,26.28-1.71a20.15,20.15,0,0,0,4.4.2c3.53,0,6.63.42,9.21,3.47,1.16,1.38,3.87,1.32,5.66,2.3a38.14,38.14,0,0,1,4.37,3.44c1.27,1,2.5,2.21,4,2.71,2.25.76,4,1.77,5.18,4a17.35,17.35,0,0,0,2.28,2.83,3.06,3.06,0,0,1-.8,4.85c-1.56.84-3.22,1.48-4.84,2.21ZM157,159.84c-.23,5.12.94,6.29,4.37,5.07a134.67,134.67,0,0,0,12.9-5.55,17.68,17.68,0,0,0,4.54-3.47c2-2,1.65-3.32-.87-4.55a28.33,28.33,0,0,1-5.39-3.14c-6-4.81-13.25-6.11-20.49-7.32-2.1-.35-4.34.27-6.51.23-1.5,0-2.86-.37-2.69,1.9.14,1.9,0,3.7,2.84,3.57,3.37-.15,7,.06,8.53,3.65A70.23,70.23,0,0,1,157,159.84Zm-41.55-12c-2.93-.31-4.76,1.56-4.91,6-.07,2-1,2.84-2.9,3.26,0-.89.14-1.59.1-2.27-.15-2.28-1.5-3-3.32-1.6-2.77,2.17-5.35,4.58-8.22,7.07a15.85,15.85,0,0,0,2.06,1.11c1.93.73,4,1.19,5.81,2.1a87.48,87.48,0,0,1,8.07,4.66c1.53,1,2.43.66,3.44-.71,2.5-3.4,5.12-6.7,7.66-10.07a2.82,2.82,0,0,0,.63-1.68c-.18-2.66,1.38-4.38,2.75-6.41.75-1.12.15-3.24-.1-4.86a2.67,2.67,0,0,0-2.21-.4c-1.38.75-3.78.25-3.62,3.2.12,2-.65,4.11-1.26,6.1-.21.7-1.08,1.24-1.75,1.72-.14.1-1-.32-1-.59C116.19,152.33,115.86,150.24,115.42,147.81Zm38,18.73.13-.87c-3.93-.71-5.11-3.85-6-6.83-1.05-3.51-2.85-4.69-6.57-4.66-8.76.08-14.7,5-15.73,13.76-.19,1.62.23,2.33,2.07,2.4,2.86.12,5.13-.51,6.53-3.23a13,13,0,0,1,2.15-3.23c1-1,2.31-2.27,3.45-2.24,2.76.08,5.73,4.39,5.41,7.13a14.2,14.2,0,0,0,.08,2ZM135,141.71a11.13,11.13,0,0,1-1.82.07c-2.31-.26-2.65.95-2.32,2.87.5,2.94,2.59,2.66,4.76,2.62,3-.05,3.35-.32,3.27-4.28-.05-2.57-2.07-.93-3.12-1.39C135.54,141.52,135.23,141.67,135,141.71Zm5.63,26.81a31.63,31.63,0,0,0-2.46-3.8c-.19-.23-1.95.39-1.94.55a14.82,14.82,0,0,0,.74,4.2c.24.62,1.5,1.46,1.86,1.29C139.51,170.42,139.91,169.45,140.6,168.52Z"/><path class="cls-2" d="M97.34,67.38c.88.07,1.45-.06,1.73.17,3,2.42,5.84,1.23,9.07.13,3.58-1.22,7.41-.36,10.85,1.43,2.33,1.22,4.05.94,6.2-.94a25.72,25.72,0,0,1,8.65-5c1.73-.58,4.1.65,6.14,1.22a23.48,23.48,0,0,1,3.08,1.39c3.65,1.63,7.09-.32,10.42-1.09,4-.91,7.85-1.86,12-1.85a9.49,9.49,0,0,0,3.06-1c3.94-1.48,7.79-3.51,12.14-2.92a9.47,9.47,0,0,1,4.29,2.29c3.3,2.7,7.66,4.22,9.46,8.63,1.38,3.41.88,5.46-2.15,7.36s-6.13,1.56-8.31-1.17a18.33,18.33,0,0,0-2.56-2.91c-1.6-1.28-3.08-.69-2.9,1.32.28,3.25-1.6,4.52-4.07,5.56-1.95.83-3.75.74-5.29-.86-1.21-1.25-2.34-2.58-3.6-3.79-2.31-2.23-4.72-2.11-6.54.54-2.26,3.28-6,3.17-9.11,3.47-1.24.11-2.89-2.63-4.13-4.24a61.94,61.94,0,0,1-3.9-5.85c-1.42-2.35-5.78-1.77-8.19-.61-2.76,1.34-3.62,3.49-2.83,6.45.59,2.22.37,4.29-1.73,5.5s-4,.38-5.69-1.17A47.55,47.55,0,0,0,118.63,75a5.79,5.79,0,0,0-3.75-.57c-.31,0-.61,1.89-.57,2.89.07,1.68-2.71,6.25-4.34,6.49a2.55,2.55,0,0,1-1.85-1c-2.3-2.84-4.49-5.78-6.76-8.65-1.46-1.86-4.21-2.44-5.78-1.29a5.48,5.48,0,0,0-.88,7.31c.89,1.18,2.14,2.2,1,3.88S93,86.64,91,85.47a21.45,21.45,0,0,0-3.67-2c-1.15-.39-3.07-.85-3.55-.31a5.23,5.23,0,0,0-1.06,4c1.22,5.87-1.1,8.1-7,6.33-2.15-.65-3.68-.45-4.63,1.87-1,2.49-2.83,1.68-4.56.82s-1.63-2.29-1-3.77a7.06,7.06,0,0,1,5.81-4.62,5.7,5.7,0,0,0,5.2-4.37,9.23,9.23,0,0,1,7.09-6.32,10.29,10.29,0,0,0,6.19-4.35C91.9,70.08,94.17,67.76,97.34,67.38Z"/><path class="cls-2" d="M198.86,368.41c.3,8.56-3.06,15.64-6.26,22.77l-1.28-.17c-.14-1.95-.28-3.9-.44-6-2.95.69-2.42,4-4.93,5.91V379.23c-3.87,8.58-7.88,16.81-14.21,24.48.75-7,1.41-13.26,2.13-20.11-8.14,8.39-8.8,20.28-15.74,29.25-.55-9.62.34-18.48,4.9-26.6,3-5.31,6.13-10.51,9.28-15.71,1.78-2.94,3.08-3.3,6.44-2.64s6.83,1.1,10.25,1.64a1.93,1.93,0,0,0,.52.08Z"/><path class="cls-2" d="M341,276.73q-5.43,3.82-10.86,7.65a21.92,21.92,0,0,1-2.63,1.66c-4.23,2.16-8.45,4.33-12.73,6.4a41.67,41.67,0,0,1-6.17,2.49c-3.54,1.05-7.15,1.85-10.73,2.78-2.14.55-4.28,1.14-6.43,1.7a3.91,3.91,0,0,1-1.5.29c-6.75-1.21-13,1.07-19.47,2.39a24.72,24.72,0,0,0-8.36,3.85,11.23,11.23,0,0,1-9.53,1.11,20.87,20.87,0,0,0-3.78-.93,15.76,15.76,0,0,1-9.35-4.17,3.62,3.62,0,0,0-2.25-1c-3.63,0-7.26.28-10.89.41-5.31.19-10.62.58-15.92.42-2.66-.08-5.29-1.17-7.93-1.81l0-1.09a7.15,7.15,0,0,1,1.69-.26c4.07.34,8.14,1.14,12.19,1,5.77-.18,11.52-1.3,17.3-1.49,4.43-.14,9.24-1.37,13.23,1.13,2.46,1.55,4.64,2.52,7.35,1.76,2.13-.59,4.14-1.64,6.26-2.29,5.23-1.6,10.46-3,16.05-3.14a83.73,83.73,0,0,0,25.51-4.32c8.09-2.79,15.75-6.08,22.49-11.5A19,19,0,0,1,341,276.73Z"/><path class="cls-2" d="M346.35,278.66l-15.08-22.58-.83.15a10.68,10.68,0,0,0,0,2c.71,3.57,1.51,7.13,2.22,10.7a11.33,11.33,0,0,1,0,2.18l-.95.3L321.4,250.88l-.72.13c.48,2.31.94,4.61,1.43,6.92.71,3.39,1.49,6.77,2.11,10.18.11.61-.41,1.32-.63,2-.48-.43-1.21-.77-1.42-1.31-1.71-4.44-3.32-8.91-5-13.37-.42-1.14-.88-2.27-1.37-3.39-1.26-2.86-.18-5.52,3-6.76l1.59,4.45c1.19-2.32,2.16-4.27,4.87-3,.25.12,1.11-1.07,1.73-1.61.91-.79,1.81-2,2.81-2.14.66-.07,1.69,1.45,2.19,2.44,1.27,2.52,2.35,5.14,3.72,8.2,1.57-2.62-.27-4.43-.5-6.33-.27-2.2-.56-4.11,1.78-5.43,1.57-.88,2.42-.08,2.82,1.13,2.26,6.81,4.52,13.63,6.54,20.52A44.57,44.57,0,0,1,348,273C348.12,274.58,347.1,276.25,346.35,278.66Z"/><path class="cls-2" d="M102.46,397.58c-.88-2.54-1.76-5.09-2.66-7.63-.2-.56-.31-1.43-.71-1.6-4.46-2-4.63-6.35-5.32-10.11-1.17-6.38-1.85-12.87-2.44-19.34a33.21,33.21,0,0,1,.51-8.07c.21-1.43,1.14-2.74,1.75-4.11l.85.09a35.14,35.14,0,0,1,1,3.85c.45,3.19.66,6.42,1.23,9.58.14.72,1.44,1.84,2.08,1.76a4,4,0,0,1,4.69,3.51c.52,6.49,1.24,13,1.62,19.46a78.46,78.46,0,0,1-.32,10.16c-.06.83-.82,1.62-1.25,2.43Z"/><path class="cls-2" d="M134.49,127.13a23.54,23.54,0,0,0,2,1.65,7.86,7.86,0,0,0,2.93,1.65,29.37,29.37,0,0,0,5.21-.13,4.33,4.33,0,0,1,.77-.11c7.1,1,14.1-1.25,21.17-.61a10.52,10.52,0,0,1,3.6,1.62,52.55,52.55,0,0,1,4.92,2.91,38.48,38.48,0,0,1,4.62,3.71c.46.44.8,1.68.52,2a3.07,3.07,0,0,1-2.2,1,21.63,21.63,0,0,1-11.22-3.18c-4.28-2.46-8.81-4.76-14-5.14s-10.6-.56-15.75-1.59c-2.88-.58-5.19.42-7.75.81a22.93,22.93,0,0,1-3.33.56c-4.49,0-8.15,1.64-11.68,4.43-2.6,2.05-5.88,3.26-8.92,4.72-4.39,2.13-7.31,5.81-10.23,9.49-.43.55-.65,1.41-1.18,1.67a9.79,9.79,0,0,1-2.64.43c0-.73-.25-1.58,0-2.16a15.72,15.72,0,0,1,2.69-4.43,117.58,117.58,0,0,1,11.66-10.45c2.11-1.57,5.23-1.71,7.78-2.77,2.71-1.12,5.26-2.64,7.95-3.83a17.21,17.21,0,0,1,4.16-1.19C128.3,127.84,131,127.58,134.49,127.13Z"/><path class="cls-2" d="M166.4,462.56c.57-8.51,2.11-16.79,5.82-24.44,1.48-3.07,3.78-5.73,5.46-8.71a9.42,9.42,0,0,0,1.27-4.65c-.17-4.42,1.56-8.11,3.72-11.75,1.85-3.13,3.65-6.29,5.37-9.48,1-1.86,6.78-3.94,8.58-2.9a1.52,1.52,0,0,1,.64,1.24c-.38,1.48-.53,3.31-1.5,4.28-6.06,6.07-9.37,13.69-12.56,21.39a16.67,16.67,0,0,1-3.13,4.78c-2.17,2.46-3.56,5.7-4.88,8.78-1.09,2.53-1.47,5.35-2.42,7.94-.68,1.85-1.87,3.5-2.71,5.29C168.78,457.05,167.61,459.82,166.4,462.56Z"/><path class="cls-2" d="M131.16,289.68a9.63,9.63,0,0,1,1.1-9.3c2-2.93,1.37-6.16,1.36-9.42-1.43,2-2.83,4-4.32,5.92a3.62,3.62,0,0,1-1.7,1.14,2,2,0,0,1-1.67-.16,1.85,1.85,0,0,1-.17-1.6c1.25-3.71,2.6-7.38,3.86-11.09s2.39-7.31,3.57-11c4.47,1.11,4.71,1,6.34-3.81,2.23,3.25,1.55,6.71,1.56,10,0,6.52-2.53,12.48-4.05,18.67-.51,2.11-.74,4.37-1.69,6.27C134.61,286.88,133,287.91,131.16,289.68Z"/><path class="cls-2" d="M403.9,377.74a12.22,12.22,0,0,1-3-10.4c1.16-8.06,1.95-16.18,3.12-24.25a7.54,7.54,0,0,1,2.29-4.1c2.16-2,2.84-3.57,1.46-6.32-1.62-3.21-3.23-6.39-2.84-10.12.21-2,.63-3.95,1-5.92l.8,0c.42.52,1.11,1,1.2,1.56a73.06,73.06,0,0,1,1.31,10.56c0,3.59-1.31,7.28,2,10.21.3.27.25,1.19.08,1.71-2.37,7.28-2.74,14.85-3.13,22.39A30.85,30.85,0,0,1,403.9,377.74Z"/><path class="cls-2" d="M345.36,447.94c.24-1.46.55-2.92.7-4.39.69-6.87,3.74-13.11,5.22-19.74,1.08-4.79,2.55-9.92,1.82-14.58-1.06-6.77.48-12.73,2.79-18.68,1-2.53,3.06-4.64,4.51-6.76.82.85,2,1.59,2.37,2.61a6.32,6.32,0,0,1,.31,3.9c-1.44,4.81-3.05,9.57-4.77,14.3-1.15,3.17-2.59,6.24-3.85,9.37-.25.63-.59,1.55-.32,2,3.54,5.7.52,11.31-.48,16.8-.75,4.08-2.71,8-4.41,11.84-.62,1.4-2.06,2.43-3.12,3.63Z"/><path class="cls-2" d="M438.7,307.73l2.37-2.54c.4.5,1,.89,1.05,1.37,1,6.11,2.61,12.12.92,18.49-.77,2.88.12,6.16.06,9.26,0,2.11-.42,4.21-.7,6.76-4.24-3-2.21-7.85-3.94-10.47l-4.89,1.63a20.68,20.68,0,0,1-.7-4.62c.51-7.26,1.18-14.5,1.84-21.75.12-1.23.46-2.45.69-3.67l.87-.14Z"/><path class="cls-2" d="M197.64,279.46l3.87-25.88-.8-.19a30.23,30.23,0,0,0-1.22,4c-1.1,6.93-2,13.89-3.24,20.77-.28,1.5-1.88,2.8-3,4.06a1.61,1.61,0,0,1-1.56-.17,3.13,3.13,0,0,1-.65-2.08c1-7,2-13.93,3.24-20.87.65-3.75,1.61-7.45,2.52-11.14.5-2,1.69-1.89,2.69-.44a4,4,0,0,0,3.85,2c1.83-.06,2.92,2.18,2.44,4.72-.37,2-1,3.86-1.44,5.81-1.35,5.93-2.62,11.88-4,17.8-.21.86-1.1,1.57-1.67,2.34Z"/><path class="cls-2" d="M307.65,438.26c1.19-.64,2.35-1.35,3.57-1.91.71-.32,1.83-.8,2.22-.5a4.89,4.89,0,0,1,1.17,2.4,2.17,2.17,0,0,1-.31,1.25c-3.12,7.24-6.18,14.51-9.44,21.69a33.09,33.09,0,0,1-3.87,5.87c-.58.76-1.59,1.2-3,2.23.21-3.45,3.23-6.51-1.67-8.39l10.95-23.13Z"/><path class="cls-2" d="M94.2,410.84c4.28-1.31,7.24.79,7.69,5,.32,3,.93,6,1.2,9,.19,2.09,0,4.21,0,6.31l-1.07.25c-1-2.18-2-4.4-3.08-6.55-.66-1.31-1.58-2.49-2.26-3.79-2.38-4.53-5.23-8.9-6.88-13.68-1.54-4.44-1.9-9.31-2.51-14-.47-3.65-.52-7.35-.75-11l1.4-.2A181.82,181.82,0,0,1,94.2,410.84Z"/><path class="cls-2" d="M118.07,403.79c-1.35-4.68-2.76-9.36-4-14.06a85.35,85.35,0,0,1-2.57-10.61,123.07,123.07,0,0,1-.73-12.46c0-.48.65-1.43.9-1.4a14.29,14.29,0,0,1,4.6,1.1,3.91,3.91,0,0,1,1.51,2.79c.45,5.17.63,10.36,1,15.53.39,4.86,1,9.7,1.38,14.57a20.68,20.68,0,0,1-.6,4.43Z"/><path class="cls-2" d="M426.56,381c-.37-3.52-.77-7.05-1.1-10.58-.09-.84.15-1.72,0-2.55-.39-2.46.68-4,3.15-4.61,1.52-.36,4.11-.71,4.27-1.48.44-2.1.56-4.87-.51-6.53-1.38-2.14-.91-4.17-.94-6.16,0-3.68.06-7.61,5.08-9.19a12.83,12.83,0,0,1,.65,3.26c-.45,6.92-.95,13.84-1.63,20.74-.12,1.22-1.16,2.35-1.76,3.54a45.3,45.3,0,0,0-2.25,4.59c-.85,2.27-1.4,4.65-2.23,6.92a9.66,9.66,0,0,1-1.6,2.19Z"/><path class="cls-2" d="M227.88,281.05c.32-2.17.7-4.28.92-6.4.63-6.2,1.16-12.41,1.83-18.6.08-.69.81-1.84,1.28-1.86.9-.05,2.36.33,2.64,1a10.89,10.89,0,0,1,1,4.7,71.46,71.46,0,0,1-1,7.71,39.71,39.71,0,0,1,2.9-3.83,1.47,1.47,0,0,1,2.67.56,7.48,7.48,0,0,1,.4,3.76,73.64,73.64,0,0,1-2.71,9.72c-.48,1.31-1.91,2.29-3.47,3.14v-5.18l-.59-.38C232.72,278.14,232.44,281.66,227.88,281.05Z"/><path class="cls-2" d="M326.46,466.89a13.65,13.65,0,0,1-1.15-2.66c-.35-3.22-.56-6.44-.89-9.66a6.56,6.56,0,0,1,3.82-6,10.05,10.05,0,0,0,2.49-1.6c.42-.3.69-1,1.1-1.07,3.57-.5,3.16-3.39,3.81-5.83.86-3.23,2.24-6.31,3.23-9.51.87-2.8,1.44-5.7,2.28-8.51a21.13,21.13,0,0,1,2-3.53c.42,1.75,1,2.77.82,3.66-1.05,5.6-2.22,11.19-3.44,16.76-.61,2.76-.77,5.93-3.54,7.52-3.86,2.22-4.86,6-6.13,9.75C329.7,459.57,328.14,462.83,326.46,466.89Z"/><path class="cls-2" d="M17.85,247.07c-3.3-7.36-3.82-14.82-4.91-22.17-.25-1.71-.78-3.37-1-5.08-.6-4-1.2-7.94-1.48-11.94,0-.33,2.43-1.41,3.52-1.16,2.41.56,3.21,3,3.3,5.6.21,6.06.89,12.09,1.2,18.15.26,5,.28,10.06.35,15.09C18.8,246,18.3,246.37,17.85,247.07Z"/><path class="cls-2" d="M39.14,300.11c4.09.54,5.5,2.14,6.18,5.58,1.18,5.91,3.52,11.58,5,17.44,1.25,4.79,2,9.72,3,14.59l-.93.34c-1.23-1.83-2.55-3.61-3.68-5.5A57.53,57.53,0,0,1,42,315.7c-.8-3.55-2.12-7-2.92-10.52C38.71,303.63,39.09,301.92,39.14,300.11Z"/><path class="cls-2" d="M400.82,420c.68-4,1-8.13,2.16-12,.81-2.6,2.85-4.83,4.45-7.15a2.11,2.11,0,0,1,1.62-.63c3.8.21,6.36,3.44,5,6.85-1.83,4.58-4.12,9-6.4,13.36a5.67,5.67,0,0,1-2.6,2C401.32,424.25,401,424,400.82,420Z"/><path class="cls-2" d="M384.93,348.74l-2.83-.82c-1.16,3,1.82,6.26-1.14,9.73-1.24-3.73-2.65-6.86-3.31-10.15-1.09-5.44-1.74-11-2.46-16.49-.07-.56.57-1.28,1-1.81.31-.37,1.09-.41,1.28-.79,1.41-2.79,3.62-1.23,5.15-.58.95.4,1.68,2.27,1.79,3.55.34,4.12.37,8.26.49,12.4C385,345.31,384.93,346.85,384.93,348.74Z"/><path class="cls-2" d="M309.82,471.12a67,67,0,0,1-.71-6.94c0-6.35,4.13-11.07,6.7-16.42,1.25-2.59,2.66-4.69,5.29-6,3-1.55,3.67-4.88,5-7.63.28-.56.48-1.16.72-1.74l1,.12a52.08,52.08,0,0,1-.11,7.5,5.58,5.58,0,0,1-2.3,3.23c-3.35,2.34-4.55,5.91-6.1,9.39-2.58,5.77-5.43,11.42-8.2,17.1A7.75,7.75,0,0,1,309.82,471.12Z"/><path class="cls-2" d="M60.44,385.53c-6.89-6.19-9.51-13.93-12.25-21.59-1-2.79-1.74-5.67-2.76-8.44-.93-2.53-.19-4.38,2-6a8.33,8.33,0,0,1,4,6.11c1.37,7.51,5.14,14.16,7.5,21.3C59.73,379.46,59.88,382.28,60.44,385.53Z"/><path class="cls-2" d="M182.52,278.85c.9-6.68,1.77-13.36,2.71-20,.25-1.8,1-3.57,1-5.37.15-2.9,1.79-4.78,3.75-6.57,1-.94,1.71-.66,2.53.41,2,2.58.83,5.16.14,7.69-1.55,5.68-3.22,11.32-4.88,17a31,31,0,0,1-1.84,5.4c-.46.91-1.67,1.43-2.55,2.13Z"/><path class="cls-2" d="M197.39,285l5.76,6.36c0-2.57-.06-4.85,0-7.13.07-1.92-.42-4,1.82-5.31.59-.35.6-1.74.81-2.67.69-3,1.73-3.45,4.26-1.68.42.29.79.64,1.8,1.46,1.35-7.32,2.61-14.17,4-21.56.46.83.76,1.13.75,1.4-.28,5.27-.13,10.62-1,15.79-.72,4-2.83,7.73-7.53,9-.75.2-1.53,1.7-1.63,2.67-.26,2.31-.07,4.67-.17,7,0,.65-.46,1.85-.67,1.84-2.26-.09-3.61,1.82-5.45,2.37-2.26.68-3.87-.93-3.72-3.35C196.47,289.36,196.94,287.59,197.39,285Z"/><path class="cls-2" d="M278.75,334.6c2.89-.28,3.93.4,3.75,3-.51,7.42.08,14.92-1.88,22.25-1.26,4.73-2,9.61-3.14,14.37-.56,2.28-2.16,2.8-4.11,1.92C276.4,362.42,279.28,348.74,278.75,334.6Z"/><path class="cls-2" d="M349.43,456.05c1.42-3.84,2.63-7.28,4-10.66,1.17-3,2.49-5.89,3.76-8.82.2-.46.36-1.08.73-1.32,3.33-2.13,3.57-5.68,4.36-9,.2-.83.78-2,1.4-2.16s1.62.63,2.32,1.18a7.7,7.7,0,0,1,1.72,1.92,2,2,0,0,1,.33,1.6c-1.18,2.19-2,4.9-3.87,6.3-3.74,2.86-4,6.79-5.31,10.75C357.49,450,355.73,454.92,349.43,456.05Z"/><path class="cls-2" d="M67.6,387.09c-.46-.75-.89-1.52-1.37-2.26C59.16,374,57,362,58,349.06,61,350.85,67.42,375.4,67.6,387.09Z"/><path class="cls-2" d="M295.77,405.6c3.56,4.27-.12,20.78-5.8,26.67a30,30,0,0,0,0-3.35c-.09-.84-.14-2-.67-2.41-2.52-1.92-1.5-4.55-1.17-6.71a34.24,34.24,0,0,1,2.82-9.7C291.79,408.3,294,407.15,295.77,405.6Z"/><path class="cls-2" d="M369,403.61c.27-2.34.65-4.67.8-7,.47-7.54,3.62-14.24,6.49-21,.21-.48.26-1,.5-1.47.48-.87,1-1.7,1.57-2.54.8,1,2.38,2.09,2.27,3a52.23,52.23,0,0,1-2.26,10.67c-1.77,5.16-4,10.16-6.14,15.19A28.76,28.76,0,0,1,370,404Z"/><path class="cls-2" d="M416,355.3c-2.36,1-3.47.44-3.5-2.07,0-3,.2-5.91.37-8.86a2.58,2.58,0,0,1,.57-1.68c1.38-1.11,2.37-2.25,1.68-4.18-.07-.2.46-.61.86-1.11a50.22,50.22,0,0,0,1.6,6.67c.48,1.26,1.79,2.18,2.61,3.34.62.87,1.51,1.88,1.51,2.82,0,4.51-.26,9-.56,13.52,0,.71-.8,1.37-1.22,2.05-.57-.52-1.47-.93-1.66-1.56C417.36,361.35,416.71,358.41,416,355.3Z"/><path class="cls-2" d="M125,406.09a20,20,0,0,1-1.46-4.2c-.69-6-1.38-12.06-1.63-18.11-.08-2,1-4.2,1.85-6.13.64-1.37,1.66-1.7,3-.1a7.07,7.07,0,0,1,1.66,5.95c-.55,4.2-.39,8.49-.79,12.72-.32,3.3-1,6.56-1.59,9.84Z"/><path class="cls-2" d="M351.88,300.89a11,11,0,0,1-3.57-7.3,20.29,20.29,0,0,0-.37-2.58c-.56-2.22.15-3.52,2.44-3.67,1.85-.11,2.1-1,2-2.54a68.13,68.13,0,0,1-.14-8.08,7.86,7.86,0,0,1,1.76-3.9c2.93,4.59,2,9.72,2.51,14.54C357.07,292.35,356.21,297.17,351.88,300.89Z"/><path class="cls-2" d="M431.65,329c-1.06,5.52-2.06,11.06-3.23,16.55-.2.93-1.15,1.69-1.76,2.52-.68-1-1.88-2-1.94-3-.21-3.53,0-7.08,0-10.63q0-4.81,0-9.63c0-1.76.13-3.44,2.44-3.56,1.55-.08,3.61,2,3.76,3.74.07.69.05,1.39.06,2.09s0,1.21,0,1.82Z"/><path class="cls-2" d="M167.67,256a79.38,79.38,0,0,1,.38,8.43c-.27,4.48-.94,8.93-1.38,13.4a23.28,23.28,0,0,0,0,3.64c.24,3.66-1.61,5.66-5.3,5.84a30.8,30.8,0,0,0-4.11.87c-.26-1.29-1.14-3-.68-4,.66-1.49,2.29-3.51,3.57-3.55,2.45-.09,3.16-1.39,3.39-3.1.59-4.37.81-8.8,1.38-13.18.36-2.84,1.08-5.63,1.63-8.45Z"/><path class="cls-2" d="M182.65,462.41c1.33-5.75,2.4-11.59,4.09-17.24,1.06-3.54,3.85-4.79,6-3.53,2.4,1.41,3.3,5.57,1.45,8.06-3.34,4.49-6.89,8.82-10.36,13.22Z"/><path class="cls-2" d="M352.84,359.26c1.08,5.87,2.18,11.65,3.17,17.45.11.6-.43,1.3-.67,2-.6-.38-1.5-.63-1.75-1.17-.72-1.57-1.14-3.28-1.77-4.9a17.63,17.63,0,0,0-1.23-2.25l-.79.18v9.3l-.61.1c-1.53-2.43-3.38-4.72-4.5-7.33-1.41-3.25-.06-5.76,3.08-7.45.62-.33,1.4-1.44,1.25-1.95-.77-2.67.65-3.39,2.83-3.66A4.66,4.66,0,0,0,352.84,359.26Z"/><path class="cls-2" d="M133.46,320.91a44.22,44.22,0,0,1,.28-5.38c.41-2.22,1.16-4.37,1.69-6.57.41-1.71.3-3.13-1.52-4.25-2.1-1.29-2-3.53.12-6.89,2.11,1,4.33,1.95,6.49,3.05,1.32.67,1.57,1.63.2,2.56s-1.46,1.84-.62,3.28c1.56,2.64,1.6,5.05-.33,7.94C138.24,317,137.48,319.68,133.46,320.91Z"/><path class="cls-2" d="M154,194.42l28.76-19.55c1,2.7,1.22,4.28-1.18,5.79-5.94,3.75-11.66,7.85-17.52,11.73C161.05,194.42,156.93,195.31,154,194.42Z"/><path class="cls-2" d="M131.51,384.36c.63-6.71,1.39-13.37,4.23-19.65,2.25-5,4-10.18,6.22-15.17a13,13,0,0,1,4.07-4.72C141.65,358.19,138.26,371.84,131.51,384.36Z"/><path class="cls-2" d="M131.46,409.62a21.94,21.94,0,0,1,1.78,4.57c.84,5.63,1.44,11.31,2.18,17a6.38,6.38,0,0,0,.8,1.75,6.73,6.73,0,0,0,1.26-1c1.26-1.71,2.32-1.26,3.16.31a14.12,14.12,0,0,1,.88,2.69c.57,2,1.23,4,1.64,6a36.25,36.25,0,0,1,.34,4.56l-.79.27a27.42,27.42,0,0,0-1.45-2.6c-1.78-2.54-3.47-5.16-5.47-7.51-4.43-5.19-5.07-11.45-5.36-17.84-.12-2.63,0-5.27,0-7.9Z"/><path class="cls-2" d="M351.78,198.5c-2.77-1.68-4.95-3.16-7.26-4.39-5.57-2.94-11-5.9-15.64-10.4-2.9-2.82-6.78-4.67-10.36-6.73-2.24-1.29-2.9-3.11-1.24-6,3.88,3.11,7.69,6.21,11.55,9.23,2.37,1.85,4.77,3.66,7.26,5.34,4.6,3.1,9.35,6,13.88,9.2C350.88,195.39,351.1,197,351.78,198.5Z"/><path class="cls-2" d="M227.14,410.68c-.69,2-1.32,3.95-2.1,5.88-1.91,4.74-3.71,9.53-5.89,14.14-1.7,3.57-3.88,6.92-5.9,10.34a41.27,41.27,0,0,1-4.83,6.81c1.86-6.05,3-12.43,5.76-18.05,3.33-6.85,8-13.07,12-19.56Z"/><path class="cls-2" d="M200.89,439c3.16-12.61,7.41-24.75,15.54-35.54a5.36,5.36,0,0,1,.41,6.28c-4,7.68-7.87,15.4-11.76,23.12-.69,1.38-1.18,2.85-1.87,4.22a23,23,0,0,1-1.61,2.37Z"/><path class="cls-2" d="M391.46,172.94a9.41,9.41,0,0,1,2.23-1.38c5.35-1.42,9.67-4.66,14.06-7.8a19,19,0,0,1,3.15-1.83,1.56,1.56,0,0,1,1.41.21,1.47,1.47,0,0,1,.11,1.36c-2.69,5-6.11,9.23-11.43,11.67a16.49,16.49,0,0,0-2.9,2.09c-1.07.82-1.92,1.35-2.95-.27A31.6,31.6,0,0,0,391.46,172.94Z"/><path class="cls-2" d="M41.15,338.24a36,36,0,0,1-7.45-16.55c-.71-4.38-2.3-8.62-3.55-12.91-.39-1.36-.95-2.67-1.49-4.15,3.58,0,4.51,1,5.12,3.85a60.85,60.85,0,0,0,2.44,8.21C38.66,323.28,41,329.88,41.4,337A5.69,5.69,0,0,1,41.15,338.24Z"/><path class="cls-2" d="M274.81,289.31c-1.64-3.61-3.49-7.14-4.85-10.85s-.17-4.87,3.65-4.85c.88,0,1.75-.69,2.65-.79a3.65,3.65,0,0,1,2.52.39c1.46,1.32,2.12,10.74.78,13.38l-3.17-5.42-.61,0v7.91Z"/><path class="cls-2" d="M86.86,369.52c-3.17-2.7-3.68-5.76-4-8.58-.67-5.6-1-11.26-1.12-16.91a10.58,10.58,0,0,1,1.9-5.42C86.13,348.63,88.3,358.56,86.86,369.52Z"/><path class="cls-2" d="M367.94,281.34c-2.71-1.62-3.67-4.16-4.41-7-1.52-5.83-3.24-11.61-5-17.39A123.4,123.4,0,0,1,355.33,245,81.17,81.17,0,0,1,367.94,281.34Z"/><path class="cls-2" d="M393.48,412.15c.84-3.23,1.61-6.48,2.53-9.68.83-2.89,1.86-5.73,2.75-8.61.44-1.4,1.05-3,2.72-2.4s2.26,2.38,1.79,4.18a72,72,0,0,1-2.13,7.22c-1.49,4-3.15,7.89-4.84,11.78-.3.68-1.12,1.13-1.7,1.69-.24-.76-.54-1.51-.72-2.29a12,12,0,0,1-.14-1.81Z"/><path class="cls-2" d="M214.06,453c-.3-7.72,10.64-27.87,16.3-30.34C230.67,425.64,218.11,449.18,214.06,453Z"/><path class="cls-2" d="M230.06,474.14c1.56-7.11.64-14.07,4.57-20a4.49,4.49,0,0,1,5.66-1.71c.39.22.89.79.85,1.15-.26,2.42.26,5-2.22,6.89-1,.78-1.59,2.24-2.27,3.44-1.66,2.94-3.24,5.92-4.91,8.85C231.51,473.13,231,473.37,230.06,474.14Z"/><path class="cls-2" d="M151.55,434c-.87-3.32-2-6.59-2.55-10a123,123,0,0,1-1.46-12.42,12.71,12.71,0,0,1,.79-4.82c.24-.73,1.32-1.17,2-1.75.53.74,1.41,1.43,1.53,2.24a57.91,57.91,0,0,1,.66,7.78c.09,6.23,0,12.46,0,18.69Z"/><path class="cls-2" d="M78.54,306.49c-1.66,7.73-3.23,15.39-5.59,22.86l-.85-.17c.12-1.25.26-2.51.38-3.76s.63-2.74-1.31-3.41c-.41-.15-.7-1.38-.63-2.08.39-4.13.86-8.27,1.38-12.39.19-1.48,1.11-2,2.63-1.65C75.71,306.17,76.92,306.26,78.54,306.49Z"/><path class="cls-2" d="M322.33,418.22c2.63-9.39,5.18-18.54,7.88-28.2,3.2,4.93,2.53,9.42.84,13.93-1.46,3.9-3,7.76-4.47,11.67C325.85,417.6,324.67,418.62,322.33,418.22Z"/><path class="cls-2" d="M313.93,397.74c4.11,6.68,4.13,13.26,1.38,19.93-.58,1.4-.85,3-1.74,4.16-.74,1-2.19,1.36-3.62,2.18C311.36,414.72,312.65,406.23,313.93,397.74Z"/><path class="cls-2" d="M167.74,356.9c-5.1,4.77-7.26,11.25-10.18,17.28-2.08,4.31-4,8.71-6,13.05a3,3,0,0,1-2,1.45c-.07-1-.48-2.1-.14-2.92,2.76-6.74,5.38-13.56,8.63-20.07,1.62-3.25,4.4-5.95,6.82-8.76.47-.56,1.68-.48,2.55-.7Z"/><path class="cls-2" d="M220.84,258.4c2.89,4.3,1.48,8.81,1.44,13.08a103.25,103.25,0,0,1-1.43,13.19c-.1.74-.92,1.45-1.55,2a46.88,46.88,0,0,1-4.7,3.87c-.31.21-1.94-.63-1.94-1,.06-3.4.33-6.8.54-10.2l1.17-.28,3.77,5.14.85-.05c.62-4.19,1.48-8.36,1.78-12.58S220.84,263,220.84,258.4Z"/><path class="cls-2" d="M414.38,369.94a19.23,19.23,0,0,1,.7,4c-.19,5-.43,10-1,15-.12,1.06-1.61,2-2.46,2.94-.8-1-2.2-2.06-2.28-3.16-.27-3.46-.06-6.95,0-10.43,0-.5.15-1.33.45-1.43,3.27-1.2,3-4.28,3.58-6.91Z"/><path class="cls-2" d="M245.63,317.22c5.69-2.09,11.33-4.35,17.11-6.19,2.25-.72,4.8-.52,7.22-.61.39,0,.81.68,1.22,1-.45.3-.95.89-1.36.84-1.7-.23-2.36.86-3.33,1.94a11.25,11.25,0,0,1-3.85,2.42,32.9,32.9,0,0,1-5.29,1.78,11.57,11.57,0,0,1-4.3.51C250.52,318.58,248,317.8,245.63,317.22Z"/><path class="cls-2" d="M208.71,389.68c-.25-1.1-.82-2.06-.57-2.7,2.68-6.82,3.46-14.36,7.66-20.59a35.25,35.25,0,0,1,3.21-3.55C220.23,368,213.81,384.56,208.71,389.68Z"/><path class="cls-2" d="M159.5,250.71c3.69.6,5.14,2.62,4.23,5.83-.8,2.83-1.62,5.66-2.17,8.54-.37,1.92-1.58,2.63-3.11,2.22a3.22,3.22,0,0,1-1.82-2.47c0-4.23.17-8.48.54-12.7C157.22,251.6,158.69,251.18,159.5,250.71Z"/><path class="cls-2" d="M364.69,306.1c-2.93-2.88-6.81-26-4.45-29.93.6,3.25,1.26,6.49,1.78,9.75a18.52,18.52,0,0,1,.05,3.65,2.51,2.51,0,0,0,2,2.86,4.52,4.52,0,0,1,2.85,6.19,2.18,2.18,0,0,0-.21,1.49C368,302.71,366.55,304.37,364.69,306.1Z"/><path class="cls-2" d="M73.2,293.44c-.75.39-1.49,1.08-2.24,1.11-4.46.12-4.8,3.7-5.9,6.72a32.22,32.22,0,0,1-3.15,6.44c-1.06-5-2.69-10-.87-14.94.38-1,2.69-2,4.05-1.92,2.5.13,5,1,7.43,1.62Z"/><path class="cls-2" d="M110.9,410.72a33,33,0,0,1,1.87,4.54c1.26,5.11,2.49,10.24,3.47,15.42a11.22,11.22,0,0,1-.86,5.6,8.57,8.57,0,0,1-1.33-1.71c-1.7-3.86-3.2-7.8-5-11.6C107.5,419.73,108,413.92,110.9,410.72Z"/><path class="cls-2" d="M146.4,284c-1.5,2.68-3.12,5.88-5.08,8.87-.4.61-2,.41-3.13.58a13.89,13.89,0,0,1-.23-2.63c.37-3.37.85-6.72,1.29-10.08a3.51,3.51,0,0,1,4-3.22c.86.06,1.77,1.67,2.34,2.75A16.66,16.66,0,0,1,146.4,284Z"/><path class="cls-2" d="M358.33,266c-.26.41-.65,1.31-.85,1.27a3.29,3.29,0,0,1-2-1,57.25,57.25,0,0,1-5.29-7.74c-2.32-4.54-4.22-9.3-6.26-14-.14-.33-.11-1,.06-1.13a1.64,1.64,0,0,1,1.37-.12,8.33,8.33,0,0,1,2.19,2.2q4.84,8.34,9.5,16.81A22.82,22.82,0,0,1,358.33,266Z"/><path class="cls-2" d="M393.37,326.16l5.95-1.22c-.36,7.38,2.17,14.48-.26,21.82A82.27,82.27,0,0,1,393.37,326.16Z"/><path class="cls-2" d="M221.94,453.26c1.35-11.82,9.75-19.12,15.54-27.93,1.05,3.88-1.64,6.28-3.25,9.11s-3.36,5.67-4.8,8.62-2.52,5.67-5.2,7.58A15.81,15.81,0,0,0,221.94,453.26Z"/><path class="cls-2" d="M172.56,268.78c1.47-6.27,2.91-12.56,4.46-18.82.15-.6,1-1,1.47-1.56.54.53,1.27,1,1.57,1.61.8,1.71.49,3.08-.44,5-1.58,3.27-2,7.11-2.87,10.71-.56,2.27-1,4.57-1.69,6.8-.15.48-1.17.7-1.79,1a5.32,5.32,0,0,1-.62-1.85,14.05,14.05,0,0,1,.73-2.7Z"/><path class="cls-2" d="M122.5,412.34c.69,1.8,1.68,3.45,1.91,5.2.76,5.76,1.26,11.55,1.81,17.34a15.12,15.12,0,0,1-.21,2.52C120.26,429.15,118.56,414.82,122.5,412.34Z"/><path class="cls-2" d="M164.84,420.39c-1.24,11.78-6.25,22.41-10.6,34-1-4,.08-7.09,1-10.12,2-6.43,4.28-12.81,6.5-19.19.59-1.69,1.44-3.29,2.17-4.93Z"/><path class="cls-2" d="M28.09,217.52c2.06,1.49,4.22,24.24,3,33.12A43.2,43.2,0,0,1,28,225C28.47,222.62,28.09,220.06,28.09,217.52Z"/><path class="cls-2" d="M138.88,387.05c4,10.47,5.29,21.37,5.38,32.66C141.58,418.39,137.85,395.93,138.88,387.05Z"/><path class="cls-2" d="M272.1,336.73c2.69,8.65,1,17.24-.64,25.84C268.33,353.92,269.07,345.32,272.1,336.73Z"/><path class="cls-2" d="M228.06,455.18a103.65,103.65,0,0,1,14.25-26.93l.87.25a30.36,30.36,0,0,1-1.36,4.77q-2.67,5.64-5.68,11.13c-1.83,3.35-3.82,6.61-5.81,9.87a7.76,7.76,0,0,1-1.69,1.52Z"/><path class="cls-2" d="M155.5,309.19c0-1.65-.28-2.73.05-3.57,1.24-3.22,2.66-6.37,4-9.54.64-1.46,1.56-1.56,2.9-.75,3,1.81,2.9,5.43.94,8.33S158.51,307,155.5,309.19Z"/><path class="cls-2" d="M300.58,267.31c-.67-1.29-1.71-2.52-2-3.89q-1.49-8.07-2.48-16.21c-.1-.84.89-1.81,1.37-2.72.82.84,2.19,1.57,2.35,2.52.81,4.69,1.36,9.42,1.85,14.16a55.88,55.88,0,0,1,0,5.79Z"/><path class="cls-2" d="M108.24,380c2.81,2.37,5.08,20.24,3.1,24.86C108.1,396.7,105.36,388.89,108.24,380Z"/><path class="cls-2" d="M262.09,283.18c-3.75-1.71-3.49-4.67-3.68-6.77-.55-6.29-.42-12.64-.53-19a5.3,5.3,0,0,1,.49-1.42c.56.42,1.21.66,1.24,1C260.48,265.53,262.2,274,262.09,283.18Z"/><path class="cls-2" d="M308.26,265.21a12,12,0,0,1-1.25-2.65c-1.26-6.18-2.47-12.37-3.55-18.59-.14-.77.56-1.69.93-2.72C307.7,244.21,310.32,259.18,308.26,265.21Z"/><path class="cls-2" d="M420,303.64c2.5,7.84,1.64,15.86,1.52,24.43C418.1,319.69,415.87,311.83,420,303.64Z"/><path class="cls-2" d="M335.41,418.14c1.5-8.7,2.88-16.73,4.36-25.36C343.32,399.23,340.82,414.17,335.41,418.14Z"/><path class="cls-2" d="M151.21,288.21c0-4.19-.33-8.26.17-12.22.19-1.51,2.29-2.78,3.6-4.07,0,0,1.52.92,1.51,1.39a35.68,35.68,0,0,1-.71,5.11c-.45,2.6-.89,5.21-1.43,7.79A2.38,2.38,0,0,1,151.21,288.21Z"/><path class="cls-2" d="M430.22,295.41c-.43-.57-1.12-1.09-1.25-1.72-1.07-4.88-2.09-9.77-3-14.68-.13-.77.52-2.37.93-2.41a6.38,6.38,0,0,1,3.07.83c.33.15.56.86.58,1.32.23,4.65.41,9.29.59,13.94,0,.8,0,1.61,0,2.41Z"/><path class="cls-2" d="M95.45,312.39l-8.7,22.84-1.32-.32a50.74,50.74,0,0,1,1.22-6.77c1.52-4.74,3.23-9.42,5.07-14.05.42-1,1.68-1.74,2.55-2.6Z"/><path class="cls-2" d="M118.48,359.54c-2.52-3.46,1.69-18.33,6-21.89C125.46,340.25,121.54,354.62,118.48,359.54Z"/><path class="cls-2" d="M60.62,317.57c3.84,8.17,5.16,17.07,6.95,25.85-3.26-3.49-4.48-7.92-5.66-12.25s-1.59-8.8-2.34-13.21Z"/><path class="cls-2" d="M426.78,293c0,3.94.08,7.75,0,11.56a33.06,33.06,0,0,1-.75,5.41c-.09.46-.7.82-1.08,1.23-.35-.42-1-.83-1-1.28-.45-4.91-1-9.82-1.13-14.73C422.68,292.33,423.77,291.85,426.78,293Z"/><path class="cls-2" d="M42.7,264.43a60.93,60.93,0,0,1-.08,6.76c-.1.9-1.11,1.69-1.7,2.53a22.89,22.89,0,0,1-1.15-2.33c-.89-2.43-1.36-5.09-2.67-7.25a4.23,4.23,0,0,1-.14-4.36c.71-1.62,2.25-2.31,3.54-.83a33.07,33.07,0,0,1,3.11,5.18Z"/><path class="cls-2" d="M81.92,409.91c-4.22-6.71-7-13.83-7.25-22.26,2,1.6,4,2.33,4.36,5.17.69,5.32,1.9,10.57,2.88,15.86A7.2,7.2,0,0,1,81.92,409.91Z"/><path class="cls-2" d="M414,329.75c-2.63-5.46-4.22-11.18-3.72-17.28.1-1.17,1.27-2.24,2.4-3.26C414.85,316,414.75,322.84,414,329.75Z"/><path class="cls-2" d="M130.09,365.88c-3.26-4.81,1.5-17.91,7-20.24C134.73,352.44,132.49,358.91,130.09,365.88Z"/><path class="cls-2" d="M371.4,426.64c-.36-4.24-1.81-8.51.66-12.39a56.89,56.89,0,0,1,4.72-6.42C378,415.06,373.61,420.52,371.4,426.64Z"/><path class="cls-2" d="M70.37,414.71c-4.29-5.41-11.43-17.54-8-22.14C66.86,399.42,68,407.19,70.37,414.71Z"/><path class="cls-2" d="M16.66,277.62c3.09,6.65,4,13.69,3.95,20.92C14.66,292.44,16.53,284.87,16.66,277.62Z"/><path class="cls-2" d="M134.43,444.39c1.93,6.48-2.63,11-4.42,16.3h-.73a19.85,19.85,0,0,1-.44-3.12c0-2.27.29-4.54.32-6.81C129.21,447.57,130.91,445.35,134.43,444.39Z"/><path class="cls-2" d="M74.17,357.93a66.08,66.08,0,0,1,2.51,7c.94,3.86,1.58,7.79,2.27,11.7a5.31,5.31,0,0,1-.33,1.79c-.47-.38-1.11-.67-1.41-1.16C73.68,371.31,72.22,365,74.17,357.93Z"/><path class="cls-2" d="M25,262.64c4.78,6,2.84,13.37,4.34,20.05l-1.06.51c-.57-.69-1.46-1.3-1.66-2.08C25,275.09,24,269,25,262.64Z"/><path class="cls-2" d="M384.86,381.35c1.39-7.35,2.58-14,4-20.65.21-1,1.54-1.72,2.41-2.65C392.31,362.42,388.13,379.13,384.86,381.35Z"/><path class="cls-2" d="M385.28,413.53c-1.86,5.92-3.53,11.27-7.61,15.77.2-3.12.25-6.27.64-9.36C378.75,416.47,381,414.5,385.28,413.53Z"/><path class="cls-2" d="M247.42,458.76c.13-2.28.25-4.27.36-6.26l-.39.05c.73-1.53,1.2-3.27,2.25-4.53s3.57-3.68,4.26-3.32c2.16,1.12.81,3.46.08,5.06C251,456.38,250.92,456.35,247.42,458.76Z"/><path class="cls-2" d="M241,360.64c4.57,2.36,5.72,9.38,2.11,19.23a92.3,92.3,0,0,1-2-9.64A87.75,87.75,0,0,1,241,360.64Z"/><path class="cls-2" d="M240.24,288.26c.63-.25,1.09-.61,1.38-.51,3.24,1.17,7.17.49,9.68,3.77.51.67,1.95.77,3,.83a12.43,12.43,0,0,0,3-.66c0,1.49.36,3.53-.07,3.72-1.34.56-3.26,1-4.45.45-4.1-2-8-4.4-11.95-6.68C240.62,289.07,240.55,288.76,240.24,288.26Z"/><path class="cls-2" d="M295.63,281.54c-5.23-6.63-3-14.4-3.25-21.8C295.2,266.72,295.56,274.1,295.63,281.54Z"/><path class="cls-2" d="M318.27,277.3c-3.5-5.24-5.66-10.25-6.14-15.86-.07-.82.73-1.71,1.12-2.57.73.61,1.85,1.08,2.11,1.84a51.3,51.3,0,0,1,1.92,7.53C317.74,271,317.89,273.72,318.27,277.3Z"/><path class="cls-2" d="M207.77,269.13c-1.48-.27-1.85-.94-1.44-2.53,1.35-5.26,2.48-10.58,3.76-15.87a11.52,11.52,0,0,1,1.11-2.27C213.67,251.17,211.18,265.14,207.77,269.13Z"/><path class="cls-2" d="M438.92,284.16a44.69,44.69,0,0,1-2.41-6.33,58,58,0,0,1-1-8.53c0-.63.67-1.31,1-2,.67.41,1.8.7,1.95,1.25a47.39,47.39,0,0,1,1.53,7.62c.25,2.53,0,5.11,0,7.67Z"/><path class="cls-2" d="M278.76,240a9.09,9.09,0,0,1,.71,2.34q.15,7.42.1,14.85a7.39,7.39,0,0,1-.83,2.26c-.51-.68-1.41-1.34-1.45-2.05-.31-4.93-.51-9.88-.59-14.82,0-.93.67-1.88,1-2.83Z"/><path class="cls-2" d="M198.9,392c-1.07-4,4.7-18.81,8-21A51.53,51.53,0,0,1,198.9,392Z"/><path class="cls-2" d="M286.85,257.73a36.77,36.77,0,0,1-1.86-5.34,49.2,49.2,0,0,1-1-8.54c0-1,1-2.66,1.82-2.81,1.76-.33,1.48,1.29,1.55,2.52.19,3.65.52,7.29.76,10.93.07,1,0,2,0,2.95Z"/><path class="cls-2" d="M258.22,353.44V334.63l1-.34c.64,1,1.86,2,1.82,2.92-.18,4.94-.65,9.88-1.09,14.81,0,.53-.53,1-.8,1.52Z"/><path class="cls-2" d="M387.67,429c-.27-2.14-.6-4.27-.78-6.42a5.69,5.69,0,0,1,.3-3.07,23.14,23.14,0,0,1,3.23-4.06c.2-.22,1.35,0,1.35.09a19,19,0,0,1,0,5,38.8,38.8,0,0,1-2.2,6.08c-.37.91-.92,1.74-1.38,2.61Z"/><path class="cls-2" d="M195.25,433.68c-1.36-7.07,2.26-12.2,6.82-17.75C201.47,423,197.87,428.15,195.25,433.68Z"/><path class="cls-2" d="M267.4,284.09c-4.11-4-5-13.24-1.83-17C267.09,269.41,268.06,278.1,267.4,284.09Z"/><path class="cls-2" d="M306.22,284c-.79-3-4.67-4.21-4.16-8,.08-.51-.05-1.16.22-1.52a32.43,32.43,0,0,1,2.39-2.59c.67.81,1.8,1.56,1.93,2.45.45,3.1.55,6.24.79,9.37Z"/><path class="cls-2" d="M53.36,276.21v19.38C50.22,292.15,50.42,280.87,53.36,276.21Z"/><path class="cls-2" d="M149.5,253.55c.85,3.39,1.79,6.77,2.49,10.2A3.17,3.17,0,0,1,150.9,266a2.77,2.77,0,0,1-2.2.82,2.46,2.46,0,0,1-1.19-2c.22-3.72.64-7.42,1-11.13Z"/><path class="cls-2" d="M113.38,350c-.85-1.67-1.71-3.33-2.39-4.66a22.76,22.76,0,0,0,1.78-3c.81-2.09,1.38-4.27,2.2-6.35.27-.68,1-1.18,1.55-1.76l.73.35q-1.65,7.76-3.29,15.5Z"/><path class="cls-2" d="M240.6,336.18c2.44,5.39.6,10.61,1.17,15.94C238.19,349.54,237.64,341.75,240.6,336.18Z"/><path class="cls-2" d="M372.86,350.11a23.94,23.94,0,0,1,1.54,3.9c.86,4,1.59,8,2.27,12,.09.57-.34,1.24-.54,1.86-.51-.48-1.39-.9-1.5-1.47-.81-4.4-1.49-8.83-2.2-13.26-.14-.92-.27-1.84-.41-2.76Z"/><path class="cls-2" d="M154.35,298.06c-.5,3-2.52,4.26-5,3a2.19,2.19,0,0,1-.94-1.82,27.53,27.53,0,0,1,1.74-5.41c.71-1.53,2-1.44,2.74-.05A26.87,26.87,0,0,1,154.35,298.06Z"/><path class="cls-2" d="M273.59,420.9c.43-.87,1-2.14,1.66-3.35.92-1.7,1.79-.88,2.51.18,1.25,1.82.7,7.38-1,8.63a2.47,2.47,0,0,1-2.27-.77A22.25,22.25,0,0,1,273.59,420.9Z"/><path class="cls-2" d="M255.65,364.22c2.8,4.95.56,10.29,1.52,15.38C253.38,374.77,253.35,369.6,255.65,364.22Z"/><path class="cls-2" d="M360.2,359.73c1.71,1.65,3.68,12.17,2.73,14.6C360,372.81,358.13,362.72,360.2,359.73Z"/><path class="cls-2" d="M366,445.08l4.66-12.39C373.78,437.75,371.81,443.54,366,445.08Z"/><path class="cls-2" d="M371.21,372.4c-2.79-5.42-5.14-10.83-3.19-17A62.67,62.67,0,0,1,371.21,372.4Z"/><path class="cls-2" d="M147.41,377.12c-1.9-4,2.49-13.4,7-15.13Z"/><path class="cls-2" d="M127.11,303.74c2.72,6.21.79,12.72-3.65,13.23C124.64,312.68,125.81,308.44,127.11,303.74Z"/><path class="cls-2" d="M252.39,345c.88,3.87,1.52,7.72.16,11.87C248.8,353.73,249.53,348.82,252.39,345Z"/><path class="cls-2" d="M122.37,290c1.32,2,2.38,3.52,3.28,5.1s.91,3.22-1.1,4.09c-.71.3-1.84.71-2.24.4a3.24,3.24,0,0,1-1.11-2.41C121.38,295,121.89,292.76,122.37,290Z"/><path class="cls-2" d="M196.25,237.41c-4.23,2.17-8.15,1.62-10.15-1.08-2.12-2.86-2.48-5.57-.62-7.59C186.3,235.18,189.74,238.25,196.25,237.41Z"/><path class="cls-2" d="M226.23,376.11c1.68,3.07-.42,10.9-3.46,13.09C221.69,384.15,224.44,380.4,226.23,376.11Z"/><path class="cls-2" d="M390.11,405c-1.64-3.82.75-11.45,3.81-11.57C392.61,397.32,393.24,401.65,390.11,405Z"/><path class="cls-2" d="M272.1,249.89v16.84c-1.44-1.14-2-14.06-.87-16.81Z"/><path class="cls-2" d="M172.17,279.6a10.49,10.49,0,0,1,2.81,7.31c0,.64-.58,1.73-1,1.78a2.8,2.8,0,0,1-2-.93C170.94,286.72,171,281.32,172.17,279.6Z"/><path class="cls-2" d="M266.21,371.34c.62,1.15,1.23,1.73,1.16,2.23q-.56,4-1.44,7.86a1.74,1.74,0,0,1-1.54.77,1.86,1.86,0,0,1-.89-1.55C264.24,377.75,265.15,374.9,266.21,371.34Z"/><path class="cls-2" d="M323.38,372.57c3.21-.8,6.81,2.14,6.37,5.08-.06.45-.77,1.15-1.17,1.14-.77,0-1.88-.23-2.23-.77A59.2,59.2,0,0,1,323.38,372.57Z"/><path class="cls-2" d="M420.36,379.9c2.77,4.21,2.12,8.65,1.22,13.07-.1.5-1.05.82-1.61,1.22-.25-.65-.79-1.36-.69-1.95.39-2.38,1.19-4.71,1.45-7.09A27.46,27.46,0,0,0,420.36,379.9Z"/><path class="cls-2" d="M296.87,382c3.42,2.4,4.11,9.16,1.19,11.69C297.65,389.73,297.3,386.22,296.87,382Z"/><path class="cls-2" d="M181.41,281.86c1.57,2.39,2.92,4.28,4.07,6.3.3.52,0,1.4-.08,2.12a6.11,6.11,0,0,1-2.15-.31C181.23,288.8,180.31,285.23,181.41,281.86Z"/><path class="cls-2" d="M311.48,372c1.22,3.06,2.47,6.11,3.59,9.2.14.38-.44,1-.69,1.52-.42-.23-1.09-.38-1.22-.72-1-2.85-2-5.72-2.87-8.61-.09-.28.1-.65.16-1Z"/><path class="cls-2" d="M292.89,396.1a10.83,10.83,0,0,1-.88-2.44c-.27-2.31-.43-4.63-.52-7a5.75,5.75,0,0,1,.6-1.84c.5.5,1.4,1,1.42,1.51.14,3.15.07,6.31.07,9.46Z"/><path class="cls-2" d="M144.84,445.87c1,4.23-1,7.82-2.2,11.58C141.13,453.15,144.52,449.81,144.84,445.87Z"/><path class="cls-2" d="M287.43,275.77v8.09l-.81.36a19.19,19.19,0,0,1-1.79-3.45C284.29,278.85,285.1,277.32,287.43,275.77Z"/><path class="cls-2" d="M125.11,355.48a7.65,7.65,0,0,1,4.39-8.23l-3.5,8.61Z"/><path class="cls-2" d="M264.88,348.6c0,2.66.06,4.86-.05,7,0,.43-.87,1.22-1.06,1.15-.55-.22-1.42-.88-1.35-1.21C262.87,353.34,262.18,350.7,264.88,348.6Z"/><path class="cls-2" d="M337.31,377l-2.37.84c-.68-2.23-1.32-4.36-2.12-7C336.34,372,336.74,374.42,337.31,377Z"/><path class="cls-2" d="M227.23,289.72l1.14-2a28,28,0,0,1,2.75,3.73c.16.3-.93,1.84-1.46,1.86C227.34,293.35,227.67,291.48,227.23,289.72Z"/><path class="cls-2" d="M385.93,393l-3,6.36C381,395.89,382.05,393.54,385.93,393Z"/><path class="cls-2" d="M265.56,447.37a6.18,6.18,0,0,1,.08-1.32c.76-2.42,1.55-4.82,2.41-7.47C269.29,441.84,268.14,446,265.56,447.37Z"/><path class="cls-2" d="M275.69,391.87c3,2.88,2.84,4.55-.57,7.19C275.32,396.5,275.49,394.37,275.69,391.87Z"/><path class="cls-2" d="M222.59,312.13l9.13,1.53-.15.92-9.13-1.49Z"/><path class="cls-2" d="M268.72,400.32c.13,1.26.28,2.53.32,3.8a7.08,7.08,0,0,1-1.37.28c-.17-1.3-.33-2.6-.5-3.9Z"/><path class="cls-2" d="M285.82,394.91c.73,1.46,1.54,2.91.54,4.48l-1.07.06c-.07-1.5-.14-3-.22-4.5Z"/></svg>